<svg xmlns="http://www.w3.org/2000/svg" width="26.652" height="24.249" viewBox="0 0 26.652 24.249">
  <path id="ic_style_24px" d="M2.871,24.318l1.71.715V13.509l-3.1,7.479a2.577,2.577,0,0,0,1.391,3.331ZM27.757,19.6,21.427,4.32a2.544,2.544,0,0,0-3.318-1.378L8.7,6.834a2.552,2.552,0,0,0-1.57,2.3,2.381,2.381,0,0,0,.191,1.021l6.33,15.276A2.552,2.552,0,0,0,15.991,27a2.64,2.64,0,0,0,.983-.191l9.393-3.892A2.545,2.545,0,0,0,27.757,19.6ZM7.146,24.446A2.56,2.56,0,0,0,9.7,27h1.851l-4.4-10.644Z" transform="translate(-1.295 -2.749)" fill="#005db0"/>
</svg>
